# xmcd
#
# Track frame offsets:
#	150
#	14087
#	25962
#	38110
#	52290
#	66225
#	78462
#	95320
#	114227
#	128862
#	145667
#	162632
# Disc length: 2384 seconds
# Revision: 4
# Processed by: cddbd v1.5.1PL2 Copyright (c) Steve Scherf et al.
#
# Submitted via: libkcddb 0.10
#
DISCID=a7094e0c
DTITLE=Johnny Cash - Giant Hits
DYEAR=1900
DGENRE=Country
TTITLE0=Don't Take Your Guns To Town
TTITLE1=I Walk The Line
TTITLE2=Ring Of Fire
TTITLE3=Orange Blossom Special
TTITLE4=It Ain't Me, Babe
TTITLE5=I'm So Lonesome I Could Cry
TTITLE6=The City Of New Orleans
TTITLE7=Sunday Morning Coming Down
TTITLE8=Happy To Be With You
TTITLE9=(Ghost) Riders InThe Sky
TTITLE10=A Boy Named Sue
TTITLE11=The Baron
EXTD=
EXTT0=
EXTT1=
EXTT2=
EXTT3=
EXTT4=
EXTT5=
EXTT6=
EXTT7=
EXTT8=
EXTT9=
EXTT10=
EXTT11=
PLAYORDER=
